<mxfile host="app.diagrams.net" modified="2024-02-22T11:21:06.475Z" agent="Mozilla/5.0 (Macintosh; Intel Mac OS X 10_15_7) AppleWebKit/537.36 (KHTML, like Gecko) Chrome/121.0.0.0 Safari/537.36" version="23.1.5" etag="OYxN1i54VByaVcMrtL8-" type="github">
  <diagram name="第 1 页" id="yKEPfY6xnq2qOfl39G_Y">
    <mxGraphModel>
      <root>
        <mxCell id="0" />
        <mxCell id="1" parent="0" />
      </root>
    </mxGraphModel>
  </diagram>
</mxfile>
